<svg xmlns="http://www.w3.org/2000/svg" viewBox="0 0 800 450" width="800" height="450" role="img" aria-label="KI-E-Mail-Assistent">
  <defs>
    <linearGradient id="bg" x1="0" y1="0" x2="1" y2="1">
      <stop offset="0%" stop-color="#FFF3EB"/>
      <stop offset="100%" stop-color="#FFE4CC"/>
    </linearGradient>
    <filter id="soft" x="-20%" y="-20%" width="140%" height="140%">
      <feGaussianBlur stdDeviation="8"/>
    </filter>
    <pattern id="dots" x="0" y="0" width="20" height="20" patternUnits="userSpaceOnUse">
      <circle cx="2" cy="2" r="1.2" fill="#0F3E2E" opacity="0.08"/>
    </pattern>
  </defs>
  <rect width="800" height="450" fill="url(#bg)"/>
  <rect width="800" height="450" fill="url(#dots)"/>
  <!-- Code badge -->
  <g transform="translate(28,28)">
    <rect x="0" y="0" rx="14" ry="14" width="78" height="32" fill="#0F3E2E"/>
    <text x="39" y="21" font-family="ui-monospace, SFMono-Regular, monospace" font-size="14" font-weight="700" fill="#FFFFFF" text-anchor="middle" letter-spacing="1">A02</text>
  </g>
  <!-- Brand mark -->
  <g transform="translate(772,36)" text-anchor="end">
    <text font-family="Inter, system-ui, sans-serif" font-size="11" font-weight="600" fill="#0F3E2E" opacity="0.55" letter-spacing="2">KI-AUTOMATIONEN</text>
  </g>
  <!-- Scene -->
  
    <g transform="translate(80,100)">
      <rect x="0" y="0" rx="16" ry="16" width="640" height="240" fill="#FFFFFF" stroke="#0F3E2E" stroke-width="2"/>
      <rect x="0" y="0" rx="16" ry="16" width="640" height="44" fill="#0F3E2E"/>
      <text x="20" y="29" font-family="Inter,sans-serif" font-size="14" font-weight="700" fill="#FFFFFF">📥 Posteingang — sortiert von KI</text>
      <text x="620" y="29" font-family="Inter,sans-serif" font-size="12" font-weight="600" fill="#FDBA74" text-anchor="end">3 wichtig</text>
      <g transform="translate(0,60)">
        <rect x="0" y="0" width="640" height="40" fill="#FFFFFF"/>
        <circle cx="22" cy="20" r="6" fill="#F97316"/>
        <text x="40" y="18" font-family="Inter,sans-serif" font-size="12" font-weight="700" fill="#1F2937">Vertragsentwurf prüfen</text>
        <text x="40" y="32" font-family="Inter,sans-serif" font-size="10" fill="#6B7280">Antwortentwurf bereit</text>
        <rect x="540" y="10" rx="10" ry="10" width="78" height="20" fill="#F97316"/>
        <text x="579" y="24" font-family="Inter,sans-serif" font-size="10" font-weight="700" fill="#FFFFFF" text-anchor="middle">DRINGEND</text>
      </g><g transform="translate(0,106)">
        <rect x="0" y="0" width="640" height="40" fill="#F8FAFC"/>
        <circle cx="22" cy="20" r="6" fill="#0F3E2E"/>
        <text x="40" y="18" font-family="Inter,sans-serif" font-size="12" font-weight="700" fill="#1F2937">Termin-Anfrage Kunde Müller</text>
        <text x="40" y="32" font-family="Inter,sans-serif" font-size="10" fill="#6B7280">Geplant: Mi 14:30</text>
        <rect x="540" y="10" rx="10" ry="10" width="78" height="20" fill="#10B981"/>
        <text x="579" y="24" font-family="Inter,sans-serif" font-size="10" font-weight="700" fill="#FFFFFF" text-anchor="middle">GEPLANT</text>
      </g><g transform="translate(0,152)">
        <rect x="0" y="0" width="640" height="40" fill="#FFFFFF"/>
        <circle cx="22" cy="20" r="6" fill="#6B7280"/>
        <text x="40" y="18" font-family="Inter,sans-serif" font-size="12" font-weight="700" fill="#1F2937">Newsletter — kann warten</text>
        <text x="40" y="32" font-family="Inter,sans-serif" font-size="10" fill="#6B7280">Archiviert</text>
        <rect x="540" y="10" rx="10" ry="10" width="78" height="20" fill="#94A3B8"/>
        <text x="579" y="24" font-family="Inter,sans-serif" font-size="10" font-weight="700" fill="#FFFFFF" text-anchor="middle">LOW</text>
      </g><g transform="translate(0,198)">
        <rect x="0" y="0" width="640" height="40" fill="#F8FAFC"/>
        <circle cx="22" cy="20" r="6" fill="#6B7280"/>
        <text x="40" y="18" font-family="Inter,sans-serif" font-size="12" font-weight="700" fill="#1F2937">Rechnung #2087</text>
        <text x="40" y="32" font-family="Inter,sans-serif" font-size="10" fill="#6B7280">Weitergeleitet an Buchhaltung</text>
        <rect x="540" y="10" rx="10" ry="10" width="78" height="20" fill="#0F3E2E"/>
        <text x="579" y="24" font-family="Inter,sans-serif" font-size="10" font-weight="700" fill="#FFFFFF" text-anchor="middle">ERLEDIGT</text>
      </g>
    </g>
    
  <!-- Title strip -->
  <g transform="translate(28,392)">
    <text font-family="Inter, system-ui, sans-serif" font-size="20" font-weight="700" fill="#1F2937">KI-E-Mail-Assistent</text>
  </g>
</svg>