<svg xmlns="http://www.w3.org/2000/svg" viewBox="0 0 800 450" width="800" height="450" role="img" aria-label="KI-Call-Summary">
  <defs>
    <linearGradient id="bg" x1="0" y1="0" x2="1" y2="1">
      <stop offset="0%" stop-color="#FFF3EB"/>
      <stop offset="100%" stop-color="#FFE4CC"/>
    </linearGradient>
    <filter id="soft" x="-20%" y="-20%" width="140%" height="140%">
      <feGaussianBlur stdDeviation="8"/>
    </filter>
    <pattern id="dots" x="0" y="0" width="20" height="20" patternUnits="userSpaceOnUse">
      <circle cx="2" cy="2" r="1.2" fill="#0F3E2E" opacity="0.08"/>
    </pattern>
  </defs>
  <rect width="800" height="450" fill="url(#bg)"/>
  <rect width="800" height="450" fill="url(#dots)"/>
  <!-- Code badge -->
  <g transform="translate(28,28)">
    <rect x="0" y="0" rx="14" ry="14" width="78" height="32" fill="#0F3E2E"/>
    <text x="39" y="21" font-family="ui-monospace, SFMono-Regular, monospace" font-size="14" font-weight="700" fill="#FFFFFF" text-anchor="middle" letter-spacing="1">A05</text>
  </g>
  <!-- Brand mark -->
  <g transform="translate(772,36)" text-anchor="end">
    <text font-family="Inter, system-ui, sans-serif" font-size="11" font-weight="600" fill="#0F3E2E" opacity="0.55" letter-spacing="2">KI-AUTOMATIONEN</text>
  </g>
  <!-- Scene -->
  
    <g transform="translate(60,120)">
      <!-- waveform -->
      <rect x="0" y="0" rx="14" ry="14" width="280" height="200" fill="#0F3E2E"/>
      <text x="20" y="32" font-family="Inter,sans-serif" font-size="12" font-weight="700" fill="#FDBA74">● REC · 42:18</text>
      <g transform="translate(20,80)">
        <rect x="0" y="36" width="4" height="8" fill="#F97316" opacity="0.85"/><rect x="8" y="33" width="4" height="15" fill="#FFFFFF" opacity="0.85"/><rect x="16" y="29" width="4" height="22" fill="#FFFFFF" opacity="0.85"/><rect x="24" y="26" width="4" height="29" fill="#FFFFFF" opacity="0.85"/><rect x="32" y="22" width="4" height="36" fill="#FFFFFF" opacity="0.85"/><rect x="40" y="19" width="4" height="43" fill="#F97316" opacity="0.85"/><rect x="48" y="15" width="4" height="50" fill="#FFFFFF" opacity="0.85"/><rect x="56" y="12" width="4" height="57" fill="#FFFFFF" opacity="0.85"/><rect x="64" y="33" width="4" height="14" fill="#FFFFFF" opacity="0.85"/><rect x="72" y="30" width="4" height="21" fill="#FFFFFF" opacity="0.85"/><rect x="80" y="26" width="4" height="28" fill="#F97316" opacity="0.85"/><rect x="88" y="23" width="4" height="35" fill="#FFFFFF" opacity="0.85"/><rect x="96" y="19" width="4" height="42" fill="#FFFFFF" opacity="0.85"/><rect x="104" y="16" width="4" height="49" fill="#FFFFFF" opacity="0.85"/><rect x="112" y="12" width="4" height="56" fill="#FFFFFF" opacity="0.85"/><rect x="120" y="34" width="4" height="13" fill="#F97316" opacity="0.85"/><rect x="128" y="30" width="4" height="20" fill="#FFFFFF" opacity="0.85"/><rect x="136" y="27" width="4" height="27" fill="#FFFFFF" opacity="0.85"/><rect x="144" y="23" width="4" height="34" fill="#FFFFFF" opacity="0.85"/><rect x="152" y="20" width="4" height="41" fill="#FFFFFF" opacity="0.85"/><rect x="160" y="16" width="4" height="48" fill="#F97316" opacity="0.85"/><rect x="168" y="13" width="4" height="55" fill="#FFFFFF" opacity="0.85"/><rect x="176" y="34" width="4" height="12" fill="#FFFFFF" opacity="0.85"/><rect x="184" y="31" width="4" height="19" fill="#FFFFFF" opacity="0.85"/><rect x="192" y="27" width="4" height="26" fill="#FFFFFF" opacity="0.85"/><rect x="200" y="24" width="4" height="33" fill="#F97316" opacity="0.85"/><rect x="208" y="20" width="4" height="40" fill="#FFFFFF" opacity="0.85"/><rect x="216" y="17" width="4" height="47" fill="#FFFFFF" opacity="0.85"/><rect x="224" y="13" width="4" height="54" fill="#FFFFFF" opacity="0.85"/><rect x="232" y="35" width="4" height="11" fill="#FFFFFF" opacity="0.85"/>
      </g>
      <text x="20" y="170" font-family="Inter,sans-serif" font-size="11" fill="#FFFFFF" opacity="0.7">Zoom · Teams · Meet</text>
    </g>
    <!-- arrow -->
    <g transform="translate(360,200)">
      <path d="M0 20 L40 20 L40 10 L60 25 L40 40 L40 30 L0 30 Z" fill="#F97316"/>
    </g>
    <!-- summary card -->
    <g transform="translate(440,110)">
      <rect x="0" y="0" rx="14" ry="14" width="290" height="220" fill="#FFFFFF" stroke="#0F3E2E" stroke-width="2"/>
      <text x="20" y="30" font-family="Inter,sans-serif" font-size="13" font-weight="700" fill="#0F3E2E">Action Items</text>
      <g transform="translate(20,50)">
        <rect x="0" y="0" width="18" height="18" rx="4" fill="#F97316"/>
        <path d="M3 9 L7 13 L15 4" stroke="#FFFFFF" stroke-width="2.5" fill="none" stroke-linecap="round" stroke-linejoin="round"/>
        <text x="28" y="14" font-family="Inter,sans-serif" font-size="11" font-weight="600" fill="#1F2937">Angebot bis Freitag</text>
      </g><g transform="translate(20,88)">
        <rect x="0" y="0" width="18" height="18" rx="4" fill="#F97316"/>
        <path d="M3 9 L7 13 L15 4" stroke="#FFFFFF" stroke-width="2.5" fill="none" stroke-linecap="round" stroke-linejoin="round"/>
        <text x="28" y="14" font-family="Inter,sans-serif" font-size="11" font-weight="600" fill="#1F2937">Demo-Termin Mi 10 Uhr</text>
      </g><g transform="translate(20,126)">
        <rect x="0" y="0" width="18" height="18" rx="4" fill="#F97316"/>
        <path d="M3 9 L7 13 L15 4" stroke="#FFFFFF" stroke-width="2.5" fill="none" stroke-linecap="round" stroke-linejoin="round"/>
        <text x="28" y="14" font-family="Inter,sans-serif" font-size="11" font-weight="600" fill="#1F2937">Specs an Backend senden</text>
      </g><g transform="translate(20,164)">
        <rect x="0" y="0" width="18" height="18" rx="4" fill="#F97316"/>
        <path d="M3 9 L7 13 L15 4" stroke="#FFFFFF" stroke-width="2.5" fill="none" stroke-linecap="round" stroke-linejoin="round"/>
        <text x="28" y="14" font-family="Inter,sans-serif" font-size="11" font-weight="600" fill="#1F2937">Follow-up am 28.11.</text>
      </g>
    </g>
    
  <!-- Title strip -->
  <g transform="translate(28,392)">
    <text font-family="Inter, system-ui, sans-serif" font-size="20" font-weight="700" fill="#1F2937">KI-Call-Summary</text>
  </g>
</svg>