<svg xmlns="http://www.w3.org/2000/svg" viewBox="0 0 800 450" width="800" height="450" role="img" aria-label="KI-Content-Maschine">
  <defs>
    <linearGradient id="bg" x1="0" y1="0" x2="1" y2="1">
      <stop offset="0%" stop-color="#FFF3EB"/>
      <stop offset="100%" stop-color="#FFE4CC"/>
    </linearGradient>
    <filter id="soft" x="-20%" y="-20%" width="140%" height="140%">
      <feGaussianBlur stdDeviation="8"/>
    </filter>
    <pattern id="dots" x="0" y="0" width="20" height="20" patternUnits="userSpaceOnUse">
      <circle cx="2" cy="2" r="1.2" fill="#0F3E2E" opacity="0.08"/>
    </pattern>
  </defs>
  <rect width="800" height="450" fill="url(#bg)"/>
  <rect width="800" height="450" fill="url(#dots)"/>
  <!-- Code badge -->
  <g transform="translate(28,28)">
    <rect x="0" y="0" rx="14" ry="14" width="78" height="32" fill="#0F3E2E"/>
    <text x="39" y="21" font-family="ui-monospace, SFMono-Regular, monospace" font-size="14" font-weight="700" fill="#FFFFFF" text-anchor="middle" letter-spacing="1">A07</text>
  </g>
  <!-- Brand mark -->
  <g transform="translate(772,36)" text-anchor="end">
    <text font-family="Inter, system-ui, sans-serif" font-size="11" font-weight="600" fill="#0F3E2E" opacity="0.55" letter-spacing="2">KI-AUTOMATIONEN</text>
  </g>
  <!-- Scene -->
  
    <g transform="translate(60,100)">
      <!-- robot writes -->
      <circle cx="80" cy="120" r="58" fill="#0F3E2E"/>
      <rect x="50" y="92" width="60" height="60" rx="14" fill="#F97316"/>
      <circle cx="68" cy="116" r="6" fill="#FFFFFF"/>
      <circle cx="92" cy="116" r="6" fill="#FFFFFF"/>
      <circle cx="68" cy="116" r="2.5" fill="#0F3E2E"/>
      <circle cx="92" cy="116" r="2.5" fill="#0F3E2E"/>
      <rect x="68" y="138" width="24" height="3" rx="1.5" fill="#FFFFFF"/>
      <text x="80" y="200" font-family="Inter,sans-serif" font-size="11" font-weight="700" fill="#0F3E2E" text-anchor="middle">Ghostwriter-GPT</text>
    </g>
    <!-- 3 posts -->
    <g transform="translate(240,90)">
      <rect x="0" y="0" rx="12" ry="12" width="160" height="190" fill="#FFFFFF" stroke="#0F3E2E" stroke-width="2"/>
      <rect x="0" y="0" rx="12" ry="12" width="160" height="34" fill="#0A66C2"/>
      <text x="14" y="22" font-family="Inter,sans-serif" font-size="11" font-weight="700" fill="#FFFFFF">LinkedIn</text>
      <rect x="14" y="50" width="130" height="5" rx="2" fill="#1F2937" opacity="0.5"/><rect x="14" y="66" width="110" height="5" rx="2" fill="#1F2937" opacity="0.5"/><rect x="14" y="82" width="90" height="5" rx="2" fill="#1F2937" opacity="0.5"/><rect x="14" y="98" width="130" height="5" rx="2" fill="#1F2937" opacity="0.5"/><rect x="14" y="114" width="110" height="5" rx="2" fill="#1F2937" opacity="0.5"/><rect x="14" y="130" width="90" height="5" rx="2" fill="#1F2937" opacity="0.5"/><rect x="14" y="146" width="130" height="5" rx="2" fill="#1F2937" opacity="0.5"/>
      <rect x="14" y="170" width="50" height="10" rx="3" fill="#F97316"/>
    </g><g transform="translate(410,112)">
      <rect x="0" y="0" rx="12" ry="12" width="160" height="190" fill="#FFFFFF" stroke="#0F3E2E" stroke-width="2"/>
      <rect x="0" y="0" rx="12" ry="12" width="160" height="34" fill="#E1306C"/>
      <text x="14" y="22" font-family="Inter,sans-serif" font-size="11" font-weight="700" fill="#FFFFFF">Instagram</text>
      <rect x="14" y="50" width="130" height="5" rx="2" fill="#1F2937" opacity="0.5"/><rect x="14" y="66" width="110" height="5" rx="2" fill="#1F2937" opacity="0.5"/><rect x="14" y="82" width="90" height="5" rx="2" fill="#1F2937" opacity="0.5"/><rect x="14" y="98" width="130" height="5" rx="2" fill="#1F2937" opacity="0.5"/><rect x="14" y="114" width="110" height="5" rx="2" fill="#1F2937" opacity="0.5"/><rect x="14" y="130" width="90" height="5" rx="2" fill="#1F2937" opacity="0.5"/><rect x="14" y="146" width="130" height="5" rx="2" fill="#1F2937" opacity="0.5"/>
      <rect x="14" y="170" width="50" height="10" rx="3" fill="#F97316"/>
    </g><g transform="translate(580,134)">
      <rect x="0" y="0" rx="12" ry="12" width="160" height="190" fill="#FFFFFF" stroke="#0F3E2E" stroke-width="2"/>
      <rect x="0" y="0" rx="12" ry="12" width="160" height="34" fill="#0F3E2E"/>
      <text x="14" y="22" font-family="Inter,sans-serif" font-size="11" font-weight="700" fill="#FFFFFF">Newsletter</text>
      <rect x="14" y="50" width="130" height="5" rx="2" fill="#1F2937" opacity="0.5"/><rect x="14" y="66" width="110" height="5" rx="2" fill="#1F2937" opacity="0.5"/><rect x="14" y="82" width="90" height="5" rx="2" fill="#1F2937" opacity="0.5"/><rect x="14" y="98" width="130" height="5" rx="2" fill="#1F2937" opacity="0.5"/><rect x="14" y="114" width="110" height="5" rx="2" fill="#1F2937" opacity="0.5"/><rect x="14" y="130" width="90" height="5" rx="2" fill="#1F2937" opacity="0.5"/><rect x="14" y="146" width="130" height="5" rx="2" fill="#1F2937" opacity="0.5"/>
      <rect x="14" y="170" width="50" height="10" rx="3" fill="#F97316"/>
    </g>
    
  <!-- Title strip -->
  <g transform="translate(28,392)">
    <text font-family="Inter, system-ui, sans-serif" font-size="20" font-weight="700" fill="#1F2937">KI-Content-Maschine</text>
  </g>
</svg>