<svg xmlns="http://www.w3.org/2000/svg" viewBox="0 0 1200 630" width="1200" height="630">
  <defs>
    <linearGradient id="bg" x1="0" y1="0" x2="1" y2="1"><stop offset="0" stop-color="#0B1220"/><stop offset="0.55" stop-color="#111C33"/><stop offset="1" stop-color="#0A1328"/></linearGradient>
    <linearGradient id="accent" x1="0" y1="0" x2="1" y2="0"><stop offset="0" stop-color="#3B82F6"/><stop offset="1" stop-color="#22D3EE"/></linearGradient>
    <pattern id="grid" x="0" y="0" width="40" height="40" patternUnits="userSpaceOnUse"><path d="M 40 0 L 0 0 0 40" fill="none" stroke="#3B82F6" stroke-opacity="0.08" stroke-width="1"/></pattern>
  </defs>
  <rect width="1200" height="630" fill="url(#bg)"/>
  <rect width="1200" height="630" fill="url(#grid)"/>
  <rect x="0" y="0" width="1200" height="4" fill="url(#accent)"/>
  <text x="60" y="70" font-family="Inter, Arial, sans-serif" font-weight="700" font-size="24" fill="#F8FAFC" letter-spacing="2">ki-automatisierungen.io</text>
  <rect x="60" y="110" width="120" height="40" rx="20" fill="#3B82F6" opacity="0.15"/>
  <rect x="60" y="110" width="120" height="40" rx="20" fill="none" stroke="#3B82F6" stroke-width="1.5"/>
  <text x="120" y="137" font-family="Inter, Arial, sans-serif" font-weight="700" font-size="20" fill="#22D3EE" text-anchor="middle">A08</text>
  <text x="60" y="260" font-family="Inter, Arial, sans-serif" font-weight="800" font-size="76" fill="#F8FAFC">KI-Bewerber-Screening</text>
  <text x="60" y="320" font-family="Inter, Arial, sans-serif" font-weight="400" font-size="32" fill="#94A3B8">CV → Ranking + Interview-Fragen</text>
  <rect x="60" y="470" width="300" height="80" rx="12" fill="#3B82F6"/>
  <text x="210" y="522" font-family="Inter, Arial, sans-serif" font-weight="800" font-size="40" fill="#F8FAFC" text-anchor="middle">2.400 € netto</text>
  <text x="60" y="580" font-family="Inter, Arial, sans-serif" font-weight="600" font-size="20" fill="#94A3B8">Festpreis · 5 Tage Lieferzeit · inkl. Setup &amp; Support</text>
  <circle cx="980" cy="290" r="180" fill="#3B82F6" opacity="0.08"/>
  <circle cx="980" cy="290" r="140" fill="#3B82F6" opacity="0.12"/>
  <circle cx="980" cy="290" r="100" fill="#0B1220" stroke="#3B82F6" stroke-width="2"/>
  <g transform="translate(852, 162)" fill="#22D3EE"><path d="M128 128c26.5 0 48-21.5 48-48s-21.5-48-48-48-48 21.5-48 48 21.5 48 48 48zm0 24c-32 0-96 16-96 48v24h192v-24c0-32-64-48-96-48zm80-72l32 32 48-48-12-12-36 36-20-20-12 12z"/></g>
</svg>