<svg xmlns="http://www.w3.org/2000/svg" viewBox="0 0 800 450" width="800" height="450" role="img" aria-label="KI-Bewerber-Screening">
  <defs>
    <linearGradient id="bg" x1="0" y1="0" x2="1" y2="1">
      <stop offset="0%" stop-color="#FFF3EB"/>
      <stop offset="100%" stop-color="#FFE4CC"/>
    </linearGradient>
    <filter id="soft" x="-20%" y="-20%" width="140%" height="140%">
      <feGaussianBlur stdDeviation="8"/>
    </filter>
    <pattern id="dots" x="0" y="0" width="20" height="20" patternUnits="userSpaceOnUse">
      <circle cx="2" cy="2" r="1.2" fill="#0F3E2E" opacity="0.08"/>
    </pattern>
  </defs>
  <rect width="800" height="450" fill="url(#bg)"/>
  <rect width="800" height="450" fill="url(#dots)"/>
  <!-- Code badge -->
  <g transform="translate(28,28)">
    <rect x="0" y="0" rx="14" ry="14" width="78" height="32" fill="#0F3E2E"/>
    <text x="39" y="21" font-family="ui-monospace, SFMono-Regular, monospace" font-size="14" font-weight="700" fill="#FFFFFF" text-anchor="middle" letter-spacing="1">A08</text>
  </g>
  <!-- Brand mark -->
  <g transform="translate(772,36)" text-anchor="end">
    <text font-family="Inter, system-ui, sans-serif" font-size="11" font-weight="600" fill="#0F3E2E" opacity="0.55" letter-spacing="2">KI-AUTOMATIONEN</text>
  </g>
  <!-- Scene -->
  
    <g transform="translate(80,90)">
      <text x="0" y="20" font-family="Inter,sans-serif" font-size="14" font-weight="700" fill="#0F3E2E">Top-Match · 47 Bewerbungen</text>
      <g transform="translate(0,40)">
        <rect x="0" y="0" rx="12" ry="12" width="640" height="60" fill="#FFFFFF" stroke="#0F3E2E" stroke-width="2"/>
        <rect x="0" y="0" width="6" height="60" rx="3" fill="#F97316"/>
        <circle cx="40" cy="30" r="18" fill="#FED7AA"/>
        <text x="40" y="35" font-family="Inter,sans-serif" font-size="12" font-weight="800" fill="#0F3E2E" text-anchor="middle">MS</text>
        <text x="72" y="26" font-family="Inter,sans-serif" font-size="13" font-weight="700" fill="#1F2937">M. Schreiner — 96%</text>
        <text x="72" y="44" font-family="Inter,sans-serif" font-size="11" fill="#6B7280">Senior Fullstack · 7y · DE/EN</text>
        <rect x="560" y="20" width="60" height="20" rx="10" fill="#F97316"/>
        <text x="590" y="34" font-family="Inter,sans-serif" font-size="10" font-weight="700" fill="#FFFFFF" text-anchor="middle">96/100</text>
      </g><g transform="translate(0,110)">
        <rect x="0" y="0" rx="12" ry="12" width="640" height="60" fill="#FFFFFF" stroke="#6B7280" stroke-width="1"/>
        <rect x="0" y="0" width="6" height="60" rx="3" fill="#10B981"/>
        <circle cx="40" cy="30" r="18" fill="#A7F3D0"/>
        <text x="40" y="35" font-family="Inter,sans-serif" font-size="12" font-weight="800" fill="#0F3E2E" text-anchor="middle">TK</text>
        <text x="72" y="26" font-family="Inter,sans-serif" font-size="13" font-weight="700" fill="#1F2937">T. Klein — 88%</text>
        <text x="72" y="44" font-family="Inter,sans-serif" font-size="11" fill="#6B7280">Frontend Lead · 5y</text>
        <rect x="560" y="20" width="60" height="20" rx="10" fill="#10B981"/>
        <text x="590" y="34" font-family="Inter,sans-serif" font-size="10" font-weight="700" fill="#FFFFFF" text-anchor="middle">88/100</text>
      </g><g transform="translate(0,180)">
        <rect x="0" y="0" rx="12" ry="12" width="640" height="60" fill="#FFFFFF" stroke="#6B7280" stroke-width="1"/>
        <rect x="0" y="0" width="6" height="60" rx="3" fill="#FBBF24"/>
        <circle cx="40" cy="30" r="18" fill="#FEF3C7"/>
        <text x="40" y="35" font-family="Inter,sans-serif" font-size="12" font-weight="800" fill="#0F3E2E" text-anchor="middle">LH</text>
        <text x="72" y="26" font-family="Inter,sans-serif" font-size="13" font-weight="700" fill="#1F2937">L. Hoffmann — 74%</text>
        <text x="72" y="44" font-family="Inter,sans-serif" font-size="11" fill="#6B7280">Junior Backend · 2y</text>
        <rect x="560" y="20" width="60" height="20" rx="10" fill="#FBBF24"/>
        <text x="590" y="34" font-family="Inter,sans-serif" font-size="10" font-weight="700" fill="#FFFFFF" text-anchor="middle">74/100</text>
      </g><g transform="translate(0,250)">
        <rect x="0" y="0" rx="12" ry="12" width="640" height="60" fill="#FFFFFF" stroke="#6B7280" stroke-width="1"/>
        <rect x="0" y="0" width="6" height="60" rx="3" fill="#94A3B8"/>
        <circle cx="40" cy="30" r="18" fill="#E5E7EB"/>
        <text x="40" y="35" font-family="Inter,sans-serif" font-size="12" font-weight="800" fill="#0F3E2E" text-anchor="middle">PM</text>
        <text x="72" y="26" font-family="Inter,sans-serif" font-size="13" font-weight="700" fill="#1F2937">P. Möller — 61%</text>
        <text x="72" y="44" font-family="Inter,sans-serif" font-size="11" fill="#6B7280">Praktikant · 6m</text>
        <rect x="560" y="20" width="60" height="20" rx="10" fill="#94A3B8"/>
        <text x="590" y="34" font-family="Inter,sans-serif" font-size="10" font-weight="700" fill="#FFFFFF" text-anchor="middle">61/100</text>
      </g>
    </g>
    
  <!-- Title strip -->
  <g transform="translate(28,392)">
    <text font-family="Inter, system-ui, sans-serif" font-size="20" font-weight="700" fill="#1F2937">KI-Bewerber-Screening</text>
  </g>
</svg>