<svg xmlns="http://www.w3.org/2000/svg" viewBox="0 0 800 450" width="800" height="450" role="img" aria-label="KI-Reporting-Bot">
  <defs>
    <linearGradient id="bg" x1="0" y1="0" x2="1" y2="1">
      <stop offset="0%" stop-color="#FFF3EB"/>
      <stop offset="100%" stop-color="#FFE4CC"/>
    </linearGradient>
    <filter id="soft" x="-20%" y="-20%" width="140%" height="140%">
      <feGaussianBlur stdDeviation="8"/>
    </filter>
    <pattern id="dots" x="0" y="0" width="20" height="20" patternUnits="userSpaceOnUse">
      <circle cx="2" cy="2" r="1.2" fill="#0F3E2E" opacity="0.08"/>
    </pattern>
  </defs>
  <rect width="800" height="450" fill="url(#bg)"/>
  <rect width="800" height="450" fill="url(#dots)"/>
  <!-- Code badge -->
  <g transform="translate(28,28)">
    <rect x="0" y="0" rx="14" ry="14" width="78" height="32" fill="#0F3E2E"/>
    <text x="39" y="21" font-family="ui-monospace, SFMono-Regular, monospace" font-size="14" font-weight="700" fill="#FFFFFF" text-anchor="middle" letter-spacing="1">A10</text>
  </g>
  <!-- Brand mark -->
  <g transform="translate(772,36)" text-anchor="end">
    <text font-family="Inter, system-ui, sans-serif" font-size="11" font-weight="600" fill="#0F3E2E" opacity="0.55" letter-spacing="2">KI-AUTOMATIONEN</text>
  </g>
  <!-- Scene -->
  
    <g transform="translate(60,100)">
      <!-- Bar chart -->
      <rect x="0" y="0" rx="14" ry="14" width="380" height="240" fill="#FFFFFF" stroke="#0F3E2E" stroke-width="2"/>
      <text x="20" y="30" font-family="Inter,sans-serif" font-size="13" font-weight="700" fill="#0F3E2E">Wochenreport · KW 47</text>
      <line x1="20" y1="200" x2="360" y2="200" stroke="#6B7280" stroke-width="1"/>
      <rect x="40" y="140" width="32" height="60" rx="4" fill="#0F3E2E"/><rect x="88" y="110" width="32" height="90" rx="4" fill="#0F3E2E"/><rect x="136" y="125" width="32" height="75" rx="4" fill="#0F3E2E"/><rect x="184" y="90" width="32" height="110" rx="4" fill="#0F3E2E"/><rect x="232" y="60" width="32" height="140" rx="4" fill="#F97316"/><rect x="280" y="105" width="32" height="95" rx="4" fill="#0F3E2E"/><rect x="328" y="130" width="32" height="70" rx="4" fill="#0F3E2E"/>
      <text x="56" y="218" font-family="Inter,sans-serif" font-size="9" fill="#6B7280" text-anchor="middle">Mo</text><text x="104" y="218" font-family="Inter,sans-serif" font-size="9" fill="#6B7280" text-anchor="middle">Di</text><text x="152" y="218" font-family="Inter,sans-serif" font-size="9" fill="#6B7280" text-anchor="middle">Mi</text><text x="200" y="218" font-family="Inter,sans-serif" font-size="9" fill="#6B7280" text-anchor="middle">Do</text><text x="248" y="218" font-family="Inter,sans-serif" font-size="9" fill="#6B7280" text-anchor="middle">Fr</text><text x="296" y="218" font-family="Inter,sans-serif" font-size="9" fill="#6B7280" text-anchor="middle">Sa</text><text x="344" y="218" font-family="Inter,sans-serif" font-size="9" fill="#6B7280" text-anchor="middle">So</text>
    </g>
    <g transform="translate(470,110)">
      <g transform="translate(0,0)">
        <rect x="0" y="0" rx="12" ry="12" width="260" height="60" fill="#0F3E2E"/>
        
        <text x="20" y="26" font-family="Inter,sans-serif" font-size="11" font-weight="700" fill="#FDBA74">UMSATZ</text>
        <text x="20" y="48" font-family="Inter,sans-serif" font-size="20" font-weight="800" fill="#FFFFFF">€ 84.200</text>
      </g><g transform="translate(0,70)">
        <rect x="0" y="0" rx="12" ry="12" width="260" height="60" fill="#FFFFFF"/>
        <rect x="0" y="0" rx="12" ry="12" width="260" height="60" fill="none" stroke="#0F3E2E" stroke-width="2"/>
        <text x="20" y="26" font-family="Inter,sans-serif" font-size="11" font-weight="700" fill="#6B7280">LEADS</text>
        <text x="20" y="48" font-family="Inter,sans-serif" font-size="20" font-weight="800" fill="#1F2937">312 (+18%)</text>
      </g><g transform="translate(0,140)">
        <rect x="0" y="0" rx="12" ry="12" width="260" height="60" fill="#F97316"/>
        
        <text x="20" y="26" font-family="Inter,sans-serif" font-size="11" font-weight="700" fill="#FFFFFF">OPS-SCORE</text>
        <text x="20" y="48" font-family="Inter,sans-serif" font-size="20" font-weight="800" fill="#FFFFFF">94 / 100</text>
      </g>
    </g>
    
  <!-- Title strip -->
  <g transform="translate(28,392)">
    <text font-family="Inter, system-ui, sans-serif" font-size="20" font-weight="700" fill="#1F2937">KI-Reporting-Bot</text>
  </g>
</svg>