<svg xmlns="http://www.w3.org/2000/svg" viewBox="0 0 800 450" width="800" height="450" role="img" aria-label="KI-Rechnungs-Assistent">
  <defs>
    <linearGradient id="bg" x1="0" y1="0" x2="1" y2="1">
      <stop offset="0%" stop-color="#FFF3EB"/>
      <stop offset="100%" stop-color="#FFE4CC"/>
    </linearGradient>
    <filter id="soft" x="-20%" y="-20%" width="140%" height="140%">
      <feGaussianBlur stdDeviation="8"/>
    </filter>
    <pattern id="dots" x="0" y="0" width="20" height="20" patternUnits="userSpaceOnUse">
      <circle cx="2" cy="2" r="1.2" fill="#0F3E2E" opacity="0.08"/>
    </pattern>
  </defs>
  <rect width="800" height="450" fill="url(#bg)"/>
  <rect width="800" height="450" fill="url(#dots)"/>
  <!-- Code badge -->
  <g transform="translate(28,28)">
    <rect x="0" y="0" rx="14" ry="14" width="78" height="32" fill="#0F3E2E"/>
    <text x="39" y="21" font-family="ui-monospace, SFMono-Regular, monospace" font-size="14" font-weight="700" fill="#FFFFFF" text-anchor="middle" letter-spacing="1">A11</text>
  </g>
  <!-- Brand mark -->
  <g transform="translate(772,36)" text-anchor="end">
    <text font-family="Inter, system-ui, sans-serif" font-size="11" font-weight="600" fill="#0F3E2E" opacity="0.55" letter-spacing="2">KI-AUTOMATIONEN</text>
  </g>
  <!-- Scene -->
  
    <g transform="translate(60,100)">
      <rect x="0" y="0" rx="10" ry="10" width="200" height="240" fill="#FFFFFF" stroke="#0F3E2E" stroke-width="2"/>
      <text x="100" y="32" font-family="Inter,sans-serif" font-size="13" font-weight="800" fill="#0F3E2E" text-anchor="middle">RECHNUNG</text>
      <line x1="20" y1="42" x2="180" y2="42" stroke="#0F3E2E" stroke-width="1"/>
      <rect x="20" y="56" width="160" height="6" rx="2" fill="#1F2937" opacity="0.4"/><rect x="20" y="78" width="130" height="6" rx="2" fill="#1F2937" opacity="0.4"/><rect x="20" y="100" width="100" height="6" rx="2" fill="#1F2937" opacity="0.4"/><rect x="20" y="122" width="160" height="6" rx="2" fill="#1F2937" opacity="0.4"/><rect x="20" y="144" width="130" height="6" rx="2" fill="#1F2937" opacity="0.4"/><rect x="20" y="166" width="100" height="6" rx="2" fill="#1F2937" opacity="0.4"/>
      <rect x="20" y="200" width="160" height="28" rx="4" fill="#F97316" opacity="0.15"/>
      <text x="30" y="220" font-family="ui-monospace,monospace" font-size="13" font-weight="800" fill="#F97316">€ 1.247,00</text>
    </g>
    <!-- pipeline arrow -->
    <g transform="translate(280,210)">
      <line x1="0" y1="10" x2="80" y2="10" stroke="#0F3E2E" stroke-width="2" stroke-dasharray="6 4"/>
      <circle cx="40" cy="10" r="14" fill="#F97316"/>
      <text x="40" y="14" font-family="Inter,sans-serif" font-size="10" font-weight="800" fill="#FFFFFF" text-anchor="middle">KI</text>
      <path d="M80 4 L80 16 L92 10 Z" fill="#0F3E2E"/>
    </g>
    <g transform="translate(400,100)">
      <rect x="0" y="0" rx="14" ry="14" width="320" height="240" fill="#0F3E2E"/>
      <text x="20" y="32" font-family="Inter,sans-serif" font-size="13" font-weight="700" fill="#FDBA74">DATEV-Export</text>
      <g transform="translate(20,56)">
        <rect x="0" y="0" width="280" height="26" rx="6" fill="#FFFFFF" opacity="0.08"/>
        <text x="12" y="17" font-family="ui-monospace,monospace" font-size="11" fill="#FFFFFF">Konto: 3400  Soll: 1.047,90</text>
      </g><g transform="translate(20,90)">
        <rect x="0" y="0" width="280" height="26" rx="6" fill="#FFFFFF" opacity="0.08"/>
        <text x="12" y="17" font-family="ui-monospace,monospace" font-size="11" fill="#FFFFFF">Konto: 1576  Soll:   199,10</text>
      </g><g transform="translate(20,124)">
        <rect x="0" y="0" width="280" height="26" rx="6" fill="#FFFFFF" opacity="0.08"/>
        <text x="12" y="17" font-family="ui-monospace,monospace" font-size="11" fill="#FFFFFF">Beleg: #2087-A · 21.11.2025</text>
      </g><g transform="translate(20,158)">
        <rect x="0" y="0" width="280" height="26" rx="6" fill="#FFFFFF" opacity="0.08"/>
        <text x="12" y="17" font-family="ui-monospace,monospace" font-size="11" fill="#FFFFFF">Status: ✓ kontiert · ✓ geprüft</text>
      </g><g transform="translate(20,192)">
        <rect x="0" y="0" width="280" height="26" rx="6" fill="#FFFFFF" opacity="0.08"/>
        <text x="12" y="17" font-family="ui-monospace,monospace" font-size="11" fill="#FFFFFF">→ bereit für Übergabe DATEV</text>
      </g>
    </g>
    
  <!-- Title strip -->
  <g transform="translate(28,392)">
    <text font-family="Inter, system-ui, sans-serif" font-size="20" font-weight="700" fill="#1F2937">KI-Rechnungs-Assistent</text>
  </g>
</svg>