<svg xmlns="http://www.w3.org/2000/svg" viewBox="0 0 800 450" width="800" height="450" role="img" aria-label="KI-Post-Assistent">
  <defs>
    <linearGradient id="bg" x1="0" y1="0" x2="1" y2="1">
      <stop offset="0%" stop-color="#FFF3EB"/>
      <stop offset="100%" stop-color="#FFE4CC"/>
    </linearGradient>
    <filter id="soft" x="-20%" y="-20%" width="140%" height="140%">
      <feGaussianBlur stdDeviation="8"/>
    </filter>
    <pattern id="dots" x="0" y="0" width="20" height="20" patternUnits="userSpaceOnUse">
      <circle cx="2" cy="2" r="1.2" fill="#0F3E2E" opacity="0.08"/>
    </pattern>
  </defs>
  <rect width="800" height="450" fill="url(#bg)"/>
  <rect width="800" height="450" fill="url(#dots)"/>
  <!-- Code badge -->
  <g transform="translate(28,28)">
    <rect x="0" y="0" rx="14" ry="14" width="78" height="32" fill="#0F3E2E"/>
    <text x="39" y="21" font-family="ui-monospace, SFMono-Regular, monospace" font-size="14" font-weight="700" fill="#FFFFFF" text-anchor="middle" letter-spacing="1">A13</text>
  </g>
  <!-- Brand mark -->
  <g transform="translate(772,36)" text-anchor="end">
    <text font-family="Inter, system-ui, sans-serif" font-size="11" font-weight="600" fill="#0F3E2E" opacity="0.55" letter-spacing="2">KI-AUTOMATIONEN</text>
  </g>
  <!-- Scene -->
  
    <g transform="translate(60,100)">
      <rect x="0" y="0" rx="14" ry="14" width="380" height="240" fill="#FFFFFF" stroke="#0F3E2E" stroke-width="2"/>
      <rect x="0" y="0" rx="14" ry="14" width="380" height="40" fill="#0F3E2E"/>
      <text x="16" y="26" font-family="Inter,sans-serif" font-size="13" font-weight="700" fill="#FFFFFF">Content-Kalender · KW 47</text>
      <text x="30" y="60" font-family="Inter,sans-serif" font-size="10" font-weight="700" fill="#6B7280" text-anchor="middle">Mo</text><text x="80" y="60" font-family="Inter,sans-serif" font-size="10" font-weight="700" fill="#6B7280" text-anchor="middle">Di</text><text x="130" y="60" font-family="Inter,sans-serif" font-size="10" font-weight="700" fill="#6B7280" text-anchor="middle">Mi</text><text x="180" y="60" font-family="Inter,sans-serif" font-size="10" font-weight="700" fill="#6B7280" text-anchor="middle">Do</text><text x="230" y="60" font-family="Inter,sans-serif" font-size="10" font-weight="700" fill="#6B7280" text-anchor="middle">Fr</text><text x="280" y="60" font-family="Inter,sans-serif" font-size="10" font-weight="700" fill="#6B7280" text-anchor="middle">Sa</text><text x="330" y="60" font-family="Inter,sans-serif" font-size="10" font-weight="700" fill="#6B7280" text-anchor="middle">So</text>
      <rect x="16" y="72" width="44" height="36" rx="6" fill="#F97316" opacity="0.95"/><text x="38" y="94" font-family="Inter,sans-serif" font-size="9" font-weight="700" fill="#FFFFFF" text-anchor="middle">LI</text><rect x="66" y="72" width="44" height="36" rx="6" fill="#0A66C2" opacity="0.95"/><text x="88" y="94" font-family="Inter,sans-serif" font-size="9" font-weight="700" fill="#FFFFFF" text-anchor="middle">LI</text><rect x="116" y="72" width="44" height="36" rx="6" fill="#E1306C" opacity="0.95"/><text x="138" y="94" font-family="Inter,sans-serif" font-size="9" font-weight="700" fill="#FFFFFF" text-anchor="middle">IG</text><rect x="166" y="72" width="44" height="36" rx="6" fill="#FFF3EB" opacity="0.3"/><text x="188" y="94" font-family="Inter,sans-serif" font-size="9" font-weight="700" fill="#6B7280" text-anchor="middle">–</text><rect x="216" y="72" width="44" height="36" rx="6" fill="#F97316" opacity="0.95"/><text x="238" y="94" font-family="Inter,sans-serif" font-size="9" font-weight="700" fill="#FFFFFF" text-anchor="middle">X</text><rect x="266" y="72" width="44" height="36" rx="6" fill="#FFF3EB" opacity="0.3"/><text x="288" y="94" font-family="Inter,sans-serif" font-size="9" font-weight="700" fill="#6B7280" text-anchor="middle">–</text><rect x="316" y="72" width="44" height="36" rx="6" fill="#0A66C2" opacity="0.95"/><text x="338" y="94" font-family="Inter,sans-serif" font-size="9" font-weight="700" fill="#FFFFFF" text-anchor="middle">LI</text><rect x="16" y="114" width="44" height="36" rx="6" fill="#F97316" opacity="0.95"/><text x="38" y="136" font-family="Inter,sans-serif" font-size="9" font-weight="700" fill="#FFFFFF" text-anchor="middle">LI</text><rect x="66" y="114" width="44" height="36" rx="6" fill="#0A66C2" opacity="0.95"/><text x="88" y="136" font-family="Inter,sans-serif" font-size="9" font-weight="700" fill="#FFFFFF" text-anchor="middle">LI</text><rect x="116" y="114" width="44" height="36" rx="6" fill="#E1306C" opacity="0.95"/><text x="138" y="136" font-family="Inter,sans-serif" font-size="9" font-weight="700" fill="#FFFFFF" text-anchor="middle">IG</text><rect x="166" y="114" width="44" height="36" rx="6" fill="#FFF3EB" opacity="0.3"/><text x="188" y="136" font-family="Inter,sans-serif" font-size="9" font-weight="700" fill="#6B7280" text-anchor="middle">–</text><rect x="216" y="114" width="44" height="36" rx="6" fill="#F97316" opacity="0.95"/><text x="238" y="136" font-family="Inter,sans-serif" font-size="9" font-weight="700" fill="#FFFFFF" text-anchor="middle">X</text><rect x="266" y="114" width="44" height="36" rx="6" fill="#FFF3EB" opacity="0.3"/><text x="288" y="136" font-family="Inter,sans-serif" font-size="9" font-weight="700" fill="#6B7280" text-anchor="middle">–</text><rect x="316" y="114" width="44" height="36" rx="6" fill="#0A66C2" opacity="0.95"/><text x="338" y="136" font-family="Inter,sans-serif" font-size="9" font-weight="700" fill="#FFFFFF" text-anchor="middle">LI</text><rect x="16" y="156" width="44" height="36" rx="6" fill="#F97316" opacity="0.95"/><text x="38" y="178" font-family="Inter,sans-serif" font-size="9" font-weight="700" fill="#FFFFFF" text-anchor="middle">LI</text><rect x="66" y="156" width="44" height="36" rx="6" fill="#0A66C2" opacity="0.95"/><text x="88" y="178" font-family="Inter,sans-serif" font-size="9" font-weight="700" fill="#FFFFFF" text-anchor="middle">LI</text><rect x="116" y="156" width="44" height="36" rx="6" fill="#E1306C" opacity="0.95"/><text x="138" y="178" font-family="Inter,sans-serif" font-size="9" font-weight="700" fill="#FFFFFF" text-anchor="middle">IG</text><rect x="166" y="156" width="44" height="36" rx="6" fill="#FFF3EB" opacity="0.3"/><text x="188" y="178" font-family="Inter,sans-serif" font-size="9" font-weight="700" fill="#6B7280" text-anchor="middle">–</text><rect x="216" y="156" width="44" height="36" rx="6" fill="#F97316" opacity="0.95"/><text x="238" y="178" font-family="Inter,sans-serif" font-size="9" font-weight="700" fill="#FFFFFF" text-anchor="middle">X</text><rect x="266" y="156" width="44" height="36" rx="6" fill="#FFF3EB" opacity="0.3"/><text x="288" y="178" font-family="Inter,sans-serif" font-size="9" font-weight="700" fill="#6B7280" text-anchor="middle">–</text><rect x="316" y="156" width="44" height="36" rx="6" fill="#0A66C2" opacity="0.95"/><text x="338" y="178" font-family="Inter,sans-serif" font-size="9" font-weight="700" fill="#FFFFFF" text-anchor="middle">LI</text>
    </g>
    <g transform="translate(470,140)">
      <text font-family="Inter,sans-serif" font-size="13" font-weight="700" fill="#0F3E2E">3 Min Freigabe / Tag</text>
      <g transform="translate(0,30)">
        <rect x="0" y="0" rx="12" ry="12" width="260" height="160" fill="#0F3E2E"/>
        <text x="20" y="30" font-family="Inter,sans-serif" font-size="11" font-weight="700" fill="#FDBA74">VORSCHAU · LinkedIn</text>
        <rect x="20" y="50" width="220" height="6" rx="2" fill="#FFFFFF" opacity="0.5"/><rect x="20" y="66" width="190" height="6" rx="2" fill="#FFFFFF" opacity="0.5"/><rect x="20" y="82" width="160" height="6" rx="2" fill="#FFFFFF" opacity="0.5"/><rect x="20" y="98" width="220" height="6" rx="2" fill="#FFFFFF" opacity="0.5"/><rect x="20" y="114" width="190" height="6" rx="2" fill="#FFFFFF" opacity="0.5"/>
        <rect x="20" y="135" rx="6" ry="6" width="80" height="14" fill="#F97316"/>
        <text x="60" y="146" font-family="Inter,sans-serif" font-size="9" font-weight="700" fill="#FFFFFF" text-anchor="middle">Posten</text>
      </g>
    </g>
    
  <!-- Title strip -->
  <g transform="translate(28,392)">
    <text font-family="Inter, system-ui, sans-serif" font-size="20" font-weight="700" fill="#1F2937">KI-Post-Assistent</text>
  </g>
</svg>