<svg xmlns="http://www.w3.org/2000/svg" viewBox="0 0 1200 630" width="1200" height="630">
  <defs>
    <linearGradient id="bg" x1="0" y1="0" x2="1" y2="1"><stop offset="0" stop-color="#0B1220"/><stop offset="0.55" stop-color="#111C33"/><stop offset="1" stop-color="#0A1328"/></linearGradient>
    <linearGradient id="accent" x1="0" y1="0" x2="1" y2="0"><stop offset="0" stop-color="#F59E0B"/><stop offset="1" stop-color="#FBBF24"/></linearGradient>
    <pattern id="grid" x="0" y="0" width="40" height="40" patternUnits="userSpaceOnUse"><path d="M 40 0 L 0 0 0 40" fill="none" stroke="#F59E0B" stroke-opacity="0.08" stroke-width="1"/></pattern>
  </defs>
  <rect width="1200" height="630" fill="url(#bg)"/>
  <rect width="1200" height="630" fill="url(#grid)"/>
  <rect x="0" y="0" width="1200" height="4" fill="url(#accent)"/>
  <text x="60" y="70" font-family="Inter, Arial, sans-serif" font-weight="700" font-size="24" fill="#F8FAFC" letter-spacing="2">ki-automatisierungen.io</text>
  <rect x="60" y="110" width="220" height="40" rx="20" fill="#F59E0B" opacity="0.15"/>
  <rect x="60" y="110" width="220" height="40" rx="20" fill="none" stroke="#F59E0B" stroke-width="1.5"/>
  <text x="170" y="137" font-family="Inter, Arial, sans-serif" font-weight="700" font-size="18" fill="#FBBF24" text-anchor="middle">EDU02 · MONATSABO</text>
  <text x="60" y="250" font-family="Inter, Arial, sans-serif" font-weight="800" font-size="64" fill="#F8FAFC">KI-Profi Programm</text>
  <text x="60" y="315" font-family="Inter, Arial, sans-serif" font-weight="700" font-size="42" fill="#FBBF24">Monatsbeitrag</text>
  <text x="60" y="370" font-family="Inter, Arial, sans-serif" font-weight="400" font-size="28" fill="#94A3B8">6-monatiges Intensivprogramm · Mindestlaufzeit 6 Monate</text>
  <rect x="60" y="470" width="360" height="80" rx="12" fill="#F59E0B"/>
  <text x="240" y="522" font-family="Inter, Arial, sans-serif" font-weight="800" font-size="40" fill="#0B1220" text-anchor="middle">899 € / Monat netto</text>
  <text x="60" y="580" font-family="Inter, Arial, sans-serif" font-weight="600" font-size="20" fill="#94A3B8">6× automatische Abbuchung · Start nach EDU01-Zahlung</text>
  <circle cx="980" cy="290" r="180" fill="#F59E0B" opacity="0.08"/>
  <circle cx="980" cy="290" r="140" fill="#F59E0B" opacity="0.12"/>
  <circle cx="980" cy="290" r="100" fill="#0B1220" stroke="#F59E0B" stroke-width="2"/>
  <g transform="translate(852, 162)" fill="#FBBF24"><path d="M192 32v16h48v32H240v96H224V80H112v24H96V80H80V32h16v16h96V32h16zM48 112v128h192V112H48zm24 24h144v16H72v-16zm0 32h96v16H72v-16zm0 32h144v16H72v-16z"/></g>
</svg>