<svg xmlns="http://www.w3.org/2000/svg" viewBox="0 0 800 450" width="800" height="450" role="img" aria-label="KI-Profi · Monatsbeitrag">
  <defs>
    <linearGradient id="bg" x1="0" y1="0" x2="1" y2="1">
      <stop offset="0%" stop-color="#FFF3EB"/>
      <stop offset="100%" stop-color="#FFE4CC"/>
    </linearGradient>
    <filter id="soft" x="-20%" y="-20%" width="140%" height="140%">
      <feGaussianBlur stdDeviation="8"/>
    </filter>
    <pattern id="dots" x="0" y="0" width="20" height="20" patternUnits="userSpaceOnUse">
      <circle cx="2" cy="2" r="1.2" fill="#0F3E2E" opacity="0.08"/>
    </pattern>
  </defs>
  <rect width="800" height="450" fill="url(#bg)"/>
  <rect width="800" height="450" fill="url(#dots)"/>
  <!-- Code badge -->
  <g transform="translate(28,28)">
    <rect x="0" y="0" rx="14" ry="14" width="78" height="32" fill="#0F3E2E"/>
    <text x="39" y="21" font-family="ui-monospace, SFMono-Regular, monospace" font-size="14" font-weight="700" fill="#FFFFFF" text-anchor="middle" letter-spacing="1">EDU02</text>
  </g>
  <!-- Brand mark -->
  <g transform="translate(772,36)" text-anchor="end">
    <text font-family="Inter, system-ui, sans-serif" font-size="11" font-weight="600" fill="#0F3E2E" opacity="0.55" letter-spacing="2">KI-AUTOMATIONEN</text>
  </g>
  <!-- Scene -->
  
    <g transform="translate(60,110)">
      <text font-family="Inter,sans-serif" font-size="13" font-weight="700" fill="#0F3E2E">Dein Lernpfad · 6 Monate</text>
      <g transform="translate(0,30)">
        <text x="0" y="14" font-family="Inter,sans-serif" font-size="11" font-weight="700" fill="#1F2937">M1</text>
        <rect x="34" y="6" width="280" height="14" rx="7" fill="#0F3E2E" opacity="0.12"/>
        <rect x="34" y="6" width="280" height="14" rx="7" fill="#F97316"/>
        <text x="324" y="17" font-family="Inter,sans-serif" font-size="10" font-weight="600" fill="#6B7280">Grundlagen</text>
      </g><g transform="translate(0,62)">
        <text x="0" y="14" font-family="Inter,sans-serif" font-size="11" font-weight="700" fill="#1F2937">M2</text>
        <rect x="34" y="6" width="280" height="14" rx="7" fill="#0F3E2E" opacity="0.12"/>
        <rect x="34" y="6" width="260" height="14" rx="7" fill="#F97316"/>
        <text x="324" y="17" font-family="Inter,sans-serif" font-size="10" font-weight="600" fill="#6B7280">Automationen</text>
      </g><g transform="translate(0,94)">
        <text x="0" y="14" font-family="Inter,sans-serif" font-size="11" font-weight="700" fill="#1F2937">M3</text>
        <rect x="34" y="6" width="280" height="14" rx="7" fill="#0F3E2E" opacity="0.12"/>
        <rect x="34" y="6" width="220" height="14" rx="7" fill="#F97316"/>
        <text x="324" y="17" font-family="Inter,sans-serif" font-size="10" font-weight="600" fill="#6B7280">Agenten</text>
      </g><g transform="translate(0,126)">
        <text x="0" y="14" font-family="Inter,sans-serif" font-size="11" font-weight="700" fill="#1F2937">M4</text>
        <rect x="34" y="6" width="280" height="14" rx="7" fill="#0F3E2E" opacity="0.12"/>
        <rect x="34" y="6" width="170" height="14" rx="7" fill="#F97316"/>
        <text x="324" y="17" font-family="Inter,sans-serif" font-size="10" font-weight="600" fill="#6B7280">RAG</text>
      </g><g transform="translate(0,158)">
        <text x="0" y="14" font-family="Inter,sans-serif" font-size="11" font-weight="700" fill="#1F2937">M5</text>
        <rect x="34" y="6" width="280" height="14" rx="7" fill="#0F3E2E" opacity="0.12"/>
        <rect x="34" y="6" width="120" height="14" rx="7" fill="#F97316"/>
        <text x="324" y="17" font-family="Inter,sans-serif" font-size="10" font-weight="600" fill="#6B7280">Produktivsetzung</text>
      </g><g transform="translate(0,190)">
        <text x="0" y="14" font-family="Inter,sans-serif" font-size="11" font-weight="700" fill="#1F2937">M6</text>
        <rect x="34" y="6" width="280" height="14" rx="7" fill="#0F3E2E" opacity="0.12"/>
        <rect x="34" y="6" width="60" height="14" rx="7" fill="#F97316"/>
        <text x="324" y="17" font-family="Inter,sans-serif" font-size="10" font-weight="600" fill="#6B7280">Strategie</text>
      </g>
    </g>
    <g transform="translate(560,140)">
      <!-- person at laptop -->
      <rect x="0" y="100" width="160" height="14" rx="3" fill="#0F3E2E"/>
      <rect x="20" y="60" width="120" height="44" rx="4" fill="#0F3E2E"/>
      <rect x="26" y="64" width="108" height="36" rx="2" fill="#F97316"/>
      <text x="80" y="86" font-family="Inter,sans-serif" font-size="11" font-weight="800" fill="#FFFFFF" text-anchor="middle">LIVE</text>
      <circle cx="80" cy="30" r="22" fill="#FDBA74"/>
      <path d="M58 60 Q80 30 102 60 Z" fill="#0F3E2E"/>
    </g>
    
  <!-- Title strip -->
  <g transform="translate(28,392)">
    <text font-family="Inter, system-ui, sans-serif" font-size="20" font-weight="700" fill="#1F2937">KI-Profi · Monatsbeitrag</text>
  </g>
</svg>